# xmcd CD database file
#
# Track frame offsets:
#	150
#	10447
#	23503
#	38569
#	55063
#	73349
#	88728
#	103000
#	122679
#	135803
#	147732
#	168080
#	181542
#	196251
#	210674
#	221786
#
# Disc length: 3513 seconds
#
# Revision: 1
# Processed by: cddbd v1.5.2PL0 Copyright (c) Steve Scherf et al.
# Submitted via: Feurio! 1.68 - http://www.feurio.com
#
DISCID=db0db710
DTITLE=South Mountain - Time Changes Everything
DYEAR=2011
DGENRE=country
TTITLE0=My San Antonio Rose
TTITLE1=Crying Time
TTITLE2=I've Got My Baby On My Mind
TTITLE3=Dixie train
TTITLE4=If I Needed You
TTITLE5=The Only Hell My Mama Ever Raised
TTITLE6=No Hard Times
TTITLE7=Together Again
TTITLE8=Time Changes Everything
TTITLE9=Foolin' Around
TTITLE10=Under The Double Eagle
TTITLE11=Light Years Away
TTITLE12=I've Got The Blues
TTITLE13=That's The Truth
TTITLE14=Dixiefied
TTITLE15=Ghost Riders In The Sky
EXTD=
EXTT0=
EXTT1=
EXTT2=
EXTT3=
EXTT4=
EXTT5=
EXTT6=
EXTT7=
EXTT8=
EXTT9=
EXTT10=
EXTT11=
EXTT12=
EXTT13=
EXTT14=
EXTT15=
PLAYORDER=
